<svg width="196" height="201" viewBox="0 0 196 201" fill="none" xmlns="http://www.w3.org/2000/svg">
<path d="M98.1805 0C36.9705 0 0.101562 41.7521 0.101562 100.501C0.101562 159.25 36.9705 201 98.1805 201C159.032 201 195.907 159.244 195.907 100.501C195.907 41.7582 159.032 0 98.1805 0ZM98.0023 154.545C69.6541 154.545 46.6839 130.665 46.6839 101.205C46.6839 75.2014 64.5797 53.5664 88.2647 48.8375C87.994 50.6188 87.8587 52.4179 87.8597 54.2195C87.8597 73.1675 102.641 88.5396 120.877 88.5396C130.07 88.5396 138.384 84.6331 144.366 78.3318C147.643 85.5152 149.331 93.3153 149.317 101.205C149.319 130.665 126.343 154.545 98.0023 154.545Z" fill="#F6F6F6"/>
</svg>
