<svg width="1060" height="230" viewBox="0 0 1060 230" fill="none" xmlns="http://www.w3.org/2000/svg">
<g clip-path="url(#clip0_933_2311)">
<path d="M494.085 26.504C482.337 18.0923 469.283 14.8477 454.927 14.8477C436.227 14.8477 420.26 20.6283 407.061 34.1185C393.863 47.6087 387.266 63.8515 387.266 82.85C387.266 101.849 393.863 118.134 407.061 131.693C420.26 145.252 436.217 150.393 454.927 150.393C469.572 150.249 482.773 147.47 494.522 138.766L499.088 150.393H522.585V14.8477H499.088L494.085 26.504ZM479.509 108.522C472.692 115.63 464.498 119.184 454.927 119.184C445.356 119.184 437.161 115.63 430.341 108.522C423.522 101.418 420.113 92.8605 420.115 82.85C420.117 72.8395 423.526 64.3184 430.341 57.2868C437.159 50.2552 445.354 46.7383 454.927 46.7361C464.5 46.7339 472.694 50.2508 479.509 57.2868C486.326 64.3228 489.735 72.8439 489.735 82.85C489.735 92.8562 486.326 101.413 479.509 108.522Z" fill="white"/>
<path d="M135.175 150.87V62.048C135.175 32.0131 117.984 15.3242 92.5683 15.3242C69.2064 15.3242 56.3723 26.3638 49.4402 38.4302H48.9284V15.7474H0.666016V150.87H48.9284V74.8821C48.9284 56.6545 57.911 48.6988 73.573 48.6988C87.1781 48.6988 94.1102 55.3717 94.1102 75.138V150.87H135.175Z" fill="white"/>
<path d="M356.91 15.3112L329.129 104.484H328.614L300.682 15.0586H259.611L306.283 150.181H351.461L397.985 15.3112H356.91Z" fill="white"/>
<path d="M207.488 14.3711C166.108 14.3711 141.182 42.7229 141.182 82.6097C141.182 122.496 166.115 150.848 207.488 150.848C248.625 150.848 273.551 122.493 273.551 82.6097C273.551 42.7262 248.625 14.3711 207.488 14.3711ZM207.353 119.321C188.194 119.321 172.66 103.104 172.66 83.0985C172.66 65.445 184.759 50.7475 200.769 47.5357C200.587 48.7455 200.495 49.967 200.493 51.1904C200.493 64.0639 210.49 74.4834 222.802 74.4834C225.782 74.4757 228.729 73.8565 231.46 72.6641C234.192 71.4717 236.649 69.7316 238.681 67.5513C240.898 72.4294 242.04 77.7271 242.03 83.0854C242.06 103.104 226.526 119.321 207.353 119.321Z" fill="white"/>
<path d="M692.808 12.4688C678.154 12.4688 667.421 17.9082 660.608 28.787L660.391 12.4688H627.539L627.105 150.619H662.13L661.044 61.4201C666.263 50.69 674.027 45.3228 684.337 45.3184C691.299 45.3184 697.1 48.5827 701.741 55.1113L729.371 37.2708C718.773 20.7361 706.585 12.4688 692.808 12.4688Z" fill="white"/>
<path d="M833.134 24.891C821.385 16.4793 808.332 12.2734 793.976 12.2734C775.265 12.2734 759.31 19.0175 746.11 32.5055C732.911 45.9936 726.312 62.2374 726.314 81.2371C726.314 100.241 732.913 116.522 746.11 130.08C759.307 143.638 775.263 150.418 793.976 150.42C808.629 150.28 821.828 145.857 833.57 137.15L838.14 150.42H861.634V12.2734H838.14L833.134 24.891ZM818.558 106.909C811.741 114.015 803.547 117.568 793.976 117.568C784.405 117.568 776.209 114.015 769.39 106.909C762.577 99.8047 759.171 91.2476 759.171 81.2371C759.171 71.2265 762.579 62.7055 769.397 55.6738C776.214 48.6444 784.409 45.1275 793.982 45.1231C803.555 45.1187 811.745 48.6356 818.551 55.6738C825.369 62.712 828.777 71.2331 828.777 81.2371C828.777 91.241 825.369 99.7993 818.551 106.912L818.558 106.909Z" fill="white"/>
<path d="M1003.59 12.5995H959.946L936.988 56.2328H936.473L913.442 12.5273H869.802L911.831 82.6753L865.855 150.609H912.602L936.473 109.118H936.988L961.147 150.609H1007.44L961.632 82.6753L1003.59 12.5995Z" fill="white"/>
<path d="M582.569 0H547.938V27.8072H537.715V62.4383H547.938V150.42H582.569V62.4383H613.109V27.8072H582.569V0Z" fill="white"/>
<path d="M1039.71 111.258C1035.81 111.258 1032 112.415 1028.75 114.583C1025.51 116.751 1022.98 119.832 1021.49 123.438C1019.99 127.043 1019.6 131.01 1020.36 134.837C1021.12 138.664 1023 142.18 1025.76 144.939C1028.52 147.699 1032.04 149.578 1035.87 150.339C1039.69 151.1 1043.66 150.71 1047.26 149.216C1050.87 147.723 1053.95 145.194 1056.12 141.949C1058.29 138.705 1059.44 134.89 1059.44 130.988C1059.44 125.757 1057.36 120.742 1053.66 117.043C1049.96 113.345 1044.95 111.264 1039.71 111.258ZM1039.71 147.139C1036.52 147.139 1033.4 146.192 1030.74 144.417C1028.09 142.642 1026.02 140.12 1024.79 137.169C1023.57 134.217 1023.25 130.97 1023.87 127.837C1024.5 124.704 1026.04 121.826 1028.29 119.568C1030.55 117.309 1033.43 115.771 1036.56 115.147C1039.7 114.524 1042.94 114.844 1045.9 116.066C1048.85 117.289 1051.37 119.359 1053.14 122.015C1054.92 124.671 1055.87 127.794 1055.87 130.988C1055.86 135.27 1054.16 139.376 1051.13 142.404C1048.1 145.431 1044 147.134 1039.71 147.139Z" fill="white"/>
<path d="M1044.37 134.478C1045.57 133.988 1046.58 133.154 1047.3 132.083C1047.97 130.941 1048.33 129.638 1048.33 128.31C1048.33 126.983 1047.97 125.68 1047.3 124.537C1046.58 123.458 1045.57 122.611 1044.37 122.103C1042.95 121.504 1041.41 121.215 1039.86 121.253H1031.43V140.744H1035.97V135.298H1040.06L1043.84 140.76H1048.69L1044.35 134.491L1044.37 134.478ZM1042.73 125.82C1043.09 126.126 1043.37 126.51 1043.55 126.942C1043.74 127.374 1043.82 127.842 1043.79 128.31C1043.82 128.781 1043.74 129.251 1043.55 129.686C1043.37 130.12 1043.09 130.507 1042.73 130.817C1042.03 131.412 1040.99 131.709 1039.61 131.709H1035.97V124.941H1039.61C1040.99 124.941 1042.03 125.234 1042.73 125.82H1042.73Z" fill="white"/>
<path d="M20.6315 202.782C14.6179 201.28 10.5892 200.436 10.5892 195.745C10.5892 192.559 13.6534 190.634 18.7648 190.634C24.7192 190.634 27.8457 193.281 28.5084 198.271H35.6636C35.0633 189.433 28.2066 184.492 18.7648 184.492C9.38523 184.492 3.49309 188.757 3.49309 196.398C3.49309 204.577 10.7697 207.162 17.505 208.845C25.9823 210.951 29.6436 211.912 29.6436 217.024C29.6436 220.331 27.1797 223.159 20.8053 223.159C13.1055 223.159 9.37866 219.55 9.01779 214.078H1.86914C2.28907 223.821 10.2874 229.293 20.8119 229.293C31.6382 229.293 36.8086 223.578 36.8086 216.725C36.8086 207.113 29.8306 205.128 20.6315 202.782Z" fill="white"/>
<path d="M56.0547 191.475H69.8271V228.399H76.9823V191.475H90.6956V185.402H56.0547V191.475Z" fill="white"/>
<path d="M139.829 213.725C139.829 220.22 136.581 223.166 129.964 223.166C123.402 223.166 120.161 220.214 120.161 213.725V185.402H113.006V213.725C113.006 223.107 117.999 229.301 129.964 229.301C141.929 229.301 146.922 223.107 146.922 213.725V185.402H139.829V213.725Z" fill="white"/>
<path d="M188.478 185.402H171.746V228.399H188.655C200.56 228.399 207.598 220.762 207.598 206.93C207.598 193.099 200.324 185.402 188.478 185.402ZM188.117 222.323H178.914V191.485H188.117C197.739 191.485 200.442 198.702 200.442 206.94C200.442 215.178 197.739 222.323 188.117 222.323Z" fill="white"/>
<path d="M238.63 185.402H231.475V228.399H238.63V185.402Z" fill="white"/>
<path d="M283.84 184.5C270.852 184.5 262.732 193.939 262.732 206.868C262.732 219.797 270.852 229.301 283.84 229.301C296.77 229.301 304.948 219.787 304.948 206.868C304.948 193.948 296.77 184.5 283.84 184.5ZM283.84 223.166C273.979 223.166 269.829 215.588 269.829 206.868C269.829 198.21 273.979 190.632 283.84 190.632C293.702 190.632 297.793 198.21 297.793 206.868C297.793 215.588 293.702 223.166 283.84 223.166Z" fill="white"/>
</g>
<defs>
<clipPath id="clip0_933_2311">
<rect width="1058.77" height="229.301" fill="white" transform="translate(0.666016)"/>
</clipPath>
</defs>
</svg>
