<svg width="147" height="142" viewBox="0 0 147 142" fill="none" xmlns="http://www.w3.org/2000/svg">
<g clip-path="url(#clip0_911_538)">
<path d="M69.7282 0C26.765 0 0.886719 29.3057 0.886719 70.5415C0.886719 111.777 26.765 141.082 69.7282 141.082C112.44 141.082 138.322 111.773 138.322 70.5415C138.322 29.31 112.44 0 69.7282 0ZM69.6031 108.475C49.7055 108.475 33.5828 91.7133 33.5828 71.0353C33.5828 52.7837 46.1438 37.5982 62.7683 34.2789C62.5783 35.5293 62.4833 36.7921 62.484 38.0566C62.484 51.3562 72.8592 62.1458 85.6591 62.1458C92.1116 62.1458 97.9473 59.4038 102.146 54.981C104.445 60.023 105.631 65.4979 105.621 71.0353C105.622 91.7133 89.495 108.475 69.6031 108.475Z" fill="#F6F6F6"/>
<path d="M137.785 138.251C136.077 138.251 134.407 137.746 132.987 136.802C131.567 135.857 130.46 134.514 129.806 132.943C129.152 131.372 128.981 129.643 129.314 127.975C129.648 126.307 130.47 124.775 131.678 123.573C132.886 122.371 134.425 121.552 136.1 121.22C137.776 120.888 139.512 121.058 141.091 121.709C142.669 122.36 144.018 123.462 144.967 124.876C145.916 126.29 146.422 127.952 146.422 129.653C146.42 131.932 145.509 134.118 143.89 135.73C142.271 137.341 140.075 138.248 137.785 138.251ZM137.785 122.614C136.387 122.614 135.02 123.028 133.858 123.801C132.695 124.575 131.79 125.675 131.255 126.961C130.72 128.247 130.581 129.662 130.854 131.028C131.127 132.393 131.801 133.647 132.789 134.631C133.778 135.615 135.038 136.285 136.41 136.557C137.781 136.828 139.203 136.688 140.495 136.156C141.787 135.623 142.891 134.72 143.668 133.563C144.444 132.406 144.859 131.045 144.859 129.653C144.857 127.786 144.111 125.997 142.785 124.677C141.458 123.357 139.661 122.615 137.785 122.614Z" fill="#F6F6F6"/>
<path d="M134.16 133.909V125.42H137.855C138.531 125.401 139.203 125.524 139.828 125.781C140.35 126.003 140.794 126.372 141.107 126.843C141.402 127.34 141.558 127.907 141.558 128.484C141.558 129.061 141.402 129.627 141.107 130.124C140.794 130.591 140.349 130.954 139.828 131.168C139.201 131.421 138.529 131.542 137.853 131.526H135.245L136.147 130.677V133.905L134.16 133.909ZM136.15 130.9L135.247 129.966H137.746C138.348 129.966 138.803 129.836 139.112 129.577C139.267 129.442 139.39 129.273 139.47 129.084C139.55 128.894 139.585 128.69 139.574 128.484C139.586 128.28 139.55 128.076 139.47 127.888C139.39 127.7 139.267 127.533 139.112 127.399C138.802 127.145 138.347 127.017 137.746 127.017H135.245L136.147 126.082L136.15 130.9ZM139.601 133.909L137.455 130.826H139.575L141.721 133.909H139.601Z" fill="#F6F6F6"/>
</g>
<defs>
<clipPath id="clip0_911_538">
<rect width="145.537" height="141.082" fill="white" transform="translate(0.884766)"/>
</clipPath>
</defs>
</svg>
