<svg width="379" height="379" viewBox="0 0 379 379" fill="none" xmlns="http://www.w3.org/2000/svg">
<path d="M137.733 159.933C137.757 163.767 139.29 167.436 142.001 170.148C144.711 172.859 148.38 174.394 152.214 174.419C153.426 174.298 154.649 174.466 155.783 174.91C156.917 175.354 157.93 176.061 158.737 176.972C159.377 177.722 159.849 178.598 160.124 179.544C160.399 180.49 160.469 181.484 160.33 182.459L149.341 262.421C148.029 271.684 150.215 281.103 155.471 288.842C160.728 296.581 168.678 302.085 177.772 304.28C199.864 308.477 218.475 305.228 238.674 282.69C240.058 280.993 240.987 278.972 241.375 276.816C241.762 274.661 241.594 272.443 240.887 270.37C240.18 268.297 238.957 266.439 237.333 264.97C235.709 263.5 233.738 262.468 231.606 261.971C229.841 261.599 228.018 261.592 226.251 261.951C224.483 262.309 222.807 263.026 221.327 264.056C220.217 264.812 218.91 265.223 217.568 265.24C216.226 265.257 214.909 264.878 213.78 264.152C212.652 263.425 211.763 262.382 211.223 261.153C210.684 259.924 210.518 258.563 210.747 257.241L222.465 189.257C223.36 183.836 223.069 178.286 221.613 172.988C220.156 167.691 217.569 162.772 214.03 158.57C210.49 154.369 206.082 150.984 201.109 148.65C196.135 146.315 190.715 145.086 185.221 145.047L152.22 145.047C150.287 145.06 148.377 145.458 146.6 146.216C144.822 146.974 143.213 148.077 141.865 149.462C140.517 150.847 139.458 152.485 138.749 154.283C138.04 156.081 137.694 158.001 137.733 159.933ZM204.497 166.613C206.865 169.417 208.59 172.706 209.549 176.248C210.509 179.79 210.681 183.5 210.052 187.116L198.333 255.1C197.734 258.847 198.238 262.688 199.785 266.153C201.332 269.619 203.855 272.558 207.045 274.613C210.235 276.668 213.955 277.75 217.75 277.725C221.544 277.701 225.25 276.572 228.414 274.477C228.636 274.483 228.858 274.502 229.078 274.533C211.24 299.729 159.436 302.653 161.821 264.13L172.811 184.169C173.184 181.443 172.98 178.669 172.211 176.028C171.443 173.386 170.128 170.935 168.352 168.834C166.382 166.532 163.917 164.706 161.142 163.491C158.366 162.277 155.352 161.706 152.324 161.822C149.987 162.053 149.52 157.594 152.22 157.645H185.222C188.895 157.64 192.524 158.441 195.854 159.991C199.185 161.54 202.135 163.801 204.497 166.613Z" fill="white"/>
<path d="M226.257 104.807C226.247 96.4574 222.925 88.4523 217.021 82.548C211.117 76.6437 203.112 73.3223 194.762 73.3125C153.074 74.7918 153.085 134.829 194.762 136.302C203.112 136.292 211.117 132.971 217.021 127.067C222.925 121.162 226.247 113.157 226.257 104.807ZM175.862 104.807C175.918 99.8323 177.934 95.0802 181.472 91.5821C185.01 88.084 189.785 86.1221 194.76 86.1222C199.736 86.1223 204.51 88.0843 208.048 91.5825C211.586 95.0807 213.602 99.8329 213.659 104.808C213.602 109.783 211.586 114.535 208.048 118.033C204.51 121.531 199.735 123.493 194.76 123.493C189.784 123.493 185.01 121.531 181.472 118.033C177.934 114.535 175.918 109.782 175.862 104.807Z" fill="white"/>
<path d="M303.017 68.7276C181 -44.58 -13.0785 72.8165 29.8712 233.351C30.3351 234.942 31.4067 236.285 32.8541 237.091C34.3015 237.896 36.008 238.1 37.604 237.656C39.2001 237.212 40.5571 236.158 41.3811 234.721C42.2052 233.284 42.4299 231.58 42.0067 229.979C15.2813 139.522 85.1501 41.3042 179.641 36.8221C265.627 29.4171 344.661 103.429 342.759 189.584C342.899 229.24 327.592 267.392 300.081 295.954C272.571 324.516 235.02 341.244 195.387 342.591C194.469 342.946 42.1613 342.582 41.1431 342.702L75.033 308.876C77.2932 306.578 78.5955 303.507 78.676 300.285C78.7566 297.063 77.6093 293.931 75.4667 291.523C65.1253 279.97 56.5977 266.913 50.1755 252.8C49.4837 251.28 48.2163 250.096 46.652 249.51C45.0877 248.924 43.3547 248.984 41.8342 249.675C40.3137 250.367 39.1303 251.635 38.5443 253.199C37.9582 254.763 38.0176 256.496 38.7093 258.017C45.6648 273.309 54.912 287.452 66.132 299.956L32.2411 333.789C30.4815 335.554 29.2844 337.802 28.8007 340.247C28.3169 342.692 28.5684 345.226 29.5232 347.528C30.4781 349.831 32.0935 351.799 34.1658 353.184C36.238 354.57 38.6742 355.31 41.1668 355.312H195.744C342.292 350.186 409.736 168.785 303.017 68.7276Z" fill="white"/>
<path d="M323.891 195.874C324.719 195.874 325.538 195.712 326.302 195.396C327.067 195.079 327.761 194.615 328.346 194.03C328.931 193.445 329.395 192.751 329.712 191.986C330.028 191.222 330.191 190.402 330.19 189.575C330.244 153.381 316.247 118.578 291.147 92.5007C289.984 91.3312 288.408 90.6648 286.759 90.645C285.11 90.6251 283.518 91.2533 282.327 92.3945C281.136 93.5357 280.44 95.0988 280.39 96.7475C280.339 98.3963 280.937 99.9991 282.056 101.211C304.898 124.952 317.638 156.63 317.592 189.575C317.592 190.402 317.754 191.222 318.071 191.986C318.387 192.751 318.851 193.445 319.436 194.03C320.021 194.615 320.716 195.079 321.48 195.395C322.245 195.712 323.064 195.874 323.891 195.874Z" fill="white"/>
<path d="M263.867 85.4409C265.234 86.3643 266.908 86.7149 268.531 86.4175C270.153 86.12 271.594 85.1983 272.544 83.8501C273.495 82.5019 273.878 80.8349 273.613 79.207C273.348 77.5791 272.455 76.1201 271.126 75.1433C264.517 71.6858 252.86 59.2644 247.253 68.2656C246.471 69.7423 246.307 71.4691 246.797 73.0666C247.287 74.6641 248.391 76.0019 249.867 76.7859C254.71 79.3755 259.386 82.2661 263.867 85.4409Z" fill="white"/>
</svg>
