<svg width="332" height="332" viewBox="0 0 332 332" fill="none" xmlns="http://www.w3.org/2000/svg">
<g clip-path="url(#clip0_911_922)">
<path d="M215.961 129.005C214.755 127.799 213.082 127.105 211.376 127.105C209.67 127.105 207.997 127.799 206.791 129.005C205.584 130.211 204.891 131.884 204.891 133.59C204.891 135.297 205.584 136.969 206.791 138.175C207.997 139.381 209.67 140.076 211.376 140.076C213.081 140.076 214.754 139.382 215.961 138.175C217.167 136.969 217.861 135.297 217.861 133.59C217.861 131.877 217.167 130.211 215.961 129.005Z" fill="white"/>
<path d="M323.883 3.66237C323.811 3.60661 323.735 3.55603 323.66 3.50351C320.506 1.29882 316.674 0 312.542 0H130.963C127.089 0 123.481 1.1419 120.445 3.10083C120.204 3.24219 119.971 3.39911 119.747 3.57289C114.768 7.10039 111.508 12.9013 111.508 19.4544V120.62C111.508 131.347 120.235 140.075 130.963 140.075H178.952C182.534 140.075 185.437 137.171 185.437 133.59C185.437 130.009 182.534 127.105 178.952 127.105H137.324L190.547 64.9183L217.957 84.6989C219.09 85.5159 220.421 85.9251 221.753 85.9251C223.081 85.9251 224.409 85.5179 225.54 84.7041L252.99 64.9559L306.182 127.105H239.911C236.33 127.105 233.426 130.008 233.426 133.59C233.426 137.171 236.329 140.075 239.911 140.075H312.543C323.271 140.075 331.998 131.348 331.998 120.62V19.4551C331.997 12.9577 328.791 7.1983 323.883 3.66237ZM124.628 121.994C124.532 121.551 124.478 121.092 124.478 120.62V19.4551C124.478 18.7612 124.59 18.094 124.793 17.4663L179.995 57.3037L124.628 121.994ZM221.759 71.4481L140.727 12.97H303.043L221.759 71.4481ZM319.027 120.62C319.027 121.092 318.973 121.551 318.877 121.994L263.554 57.3556L318.763 17.6369C318.932 18.2146 319.027 18.8235 319.027 19.4544V120.62Z" fill="white"/>
<path d="M290.493 283.445C289.521 283.445 288.599 283.659 287.772 284.043H284.606C281.025 284.043 278.121 286.946 278.121 290.528C278.121 294.108 281.024 297.013 284.606 297.013H290.494C294.075 297.013 296.979 294.109 296.979 290.528V289.93C296.978 286.35 294.075 283.445 290.493 283.445Z" fill="white"/>
<path d="M290.493 251.02C286.912 251.02 284.008 253.923 284.008 257.505V263.99C284.008 267.571 286.911 270.475 290.493 270.475C294.075 270.475 296.978 267.571 296.978 263.99V257.505C296.978 253.923 294.075 251.02 290.493 251.02Z" fill="white"/>
<path d="M258.669 284.039H252.184C248.603 284.039 245.699 286.943 245.699 290.524C245.699 294.105 248.602 297.009 252.184 297.009H258.669C262.251 297.009 265.154 294.105 265.154 290.524C265.154 286.943 262.251 284.039 258.669 284.039Z" fill="white"/>
<path d="M290.493 153.746C286.912 153.746 284.008 156.65 284.008 160.231V166.716C284.008 170.297 286.911 173.201 290.493 173.201C294.075 173.201 296.978 170.297 296.978 166.716V160.231C296.978 156.65 294.075 153.746 290.493 153.746Z" fill="white"/>
<path d="M290.493 186.168C286.912 186.168 284.008 189.072 284.008 192.653V199.138C284.008 202.719 286.911 205.623 290.493 205.623C294.075 205.623 296.978 202.719 296.978 199.138V192.653C296.978 189.072 294.075 186.168 290.493 186.168Z" fill="white"/>
<path d="M290.493 218.594C286.912 218.594 284.008 221.497 284.008 225.079V231.564C284.008 235.145 286.911 238.049 290.493 238.049C294.075 238.049 296.978 235.145 296.978 231.564V225.079C296.978 221.498 294.075 218.594 290.493 218.594Z" fill="white"/>
<path d="M47.9583 35.0195H41.4733C37.892 35.0195 34.9883 37.9232 34.9883 41.5046C34.9883 45.0859 37.892 47.9896 41.4733 47.9896H47.9583C51.5396 47.9896 54.4434 45.0859 54.4434 41.5046C54.4427 37.9232 51.5396 35.0195 47.9583 35.0195Z" fill="white"/>
<path d="M80.3841 35.0195H73.8991C70.3178 35.0195 67.4141 37.9232 67.4141 41.5046C67.4141 45.0859 70.3178 47.9896 73.8991 47.9896H80.3841C83.9654 47.9896 86.8691 45.0859 86.8691 41.5046C86.8691 37.9232 83.9661 35.0195 80.3841 35.0195Z" fill="white"/>
<path d="M41.4733 60.957C37.892 60.957 34.9883 63.8607 34.9883 67.4421V73.9271C34.9883 77.5084 37.892 80.4121 41.4733 80.4121C45.0546 80.4121 47.9583 77.5084 47.9583 73.9271V67.4421C47.9583 63.8614 45.0546 60.957 41.4733 60.957Z" fill="white"/>
<path d="M41.4733 93.3828C37.892 93.3828 34.9883 96.2865 34.9883 99.8678V106.353C34.9883 109.934 37.892 112.838 41.4733 112.838C45.0546 112.838 47.9583 109.934 47.9583 106.353V99.8678C47.9583 96.2865 45.0546 93.3828 41.4733 93.3828Z" fill="white"/>
<path d="M71.7225 262.849C70.5164 261.643 68.8434 260.949 67.1374 260.949C65.4255 260.949 63.7584 261.643 62.5458 262.849C61.3397 264.055 60.6523 265.728 60.6523 267.434C60.6523 269.14 61.3397 270.813 62.5458 272.019C63.7584 273.225 65.4313 273.919 67.1374 273.919C68.8434 273.919 70.5092 273.225 71.7225 272.019C72.9286 270.813 73.6224 269.14 73.6224 267.434C73.6224 265.728 72.9286 264.056 71.7225 262.849Z" fill="white"/>
<path d="M201.854 269.71L167.685 235.541C157.88 225.736 141.924 225.735 132.117 235.542L129.89 237.768C126.799 240.861 121.767 240.861 118.674 237.768L94.2335 213.327C92.7356 211.83 91.9108 209.838 91.9108 207.72C91.9108 205.601 92.7356 203.61 94.2342 202.112L96.4603 199.885C106.267 190.079 106.267 174.123 96.4603 164.317L62.2909 130.147C52.4845 120.342 36.5278 120.342 26.7228 130.147L18.5466 138.323C-6.1822 163.052 -6.1822 203.29 18.5466 228.018L40.8367 250.309C43.3688 252.84 47.4754 252.84 50.0081 250.309C52.5403 247.776 52.5403 243.67 50.0081 241.137L27.7181 218.847C8.04581 199.175 8.04581 167.166 27.7181 147.494L35.8936 139.318C40.6428 134.568 48.3702 134.568 53.1194 139.318L87.2881 173.487C92.0379 178.236 92.0379 185.963 87.2881 190.713L85.062 192.939C84.2443 193.757 83.5077 194.633 82.8457 195.554L55.8571 168.565C53.3249 166.034 49.2184 166.034 46.6856 168.565C44.1534 171.097 44.1534 175.204 46.6856 177.737L79.0834 210.134C79.6177 214.802 81.6895 219.125 85.062 222.497L109.503 246.938C117.652 255.086 130.912 255.087 139.061 246.937L141.288 244.711C146.037 239.961 153.765 239.961 158.514 244.711L192.683 278.879C194.983 281.18 196.251 284.239 196.251 287.492C196.251 290.744 194.984 293.804 192.683 296.104L188.04 300.747L156.94 269.648C154.408 267.116 150.301 267.116 147.769 269.648C145.236 272.18 145.236 276.286 147.769 278.819L178.419 309.469C158.704 323.76 130.905 322.035 113.152 304.281L96.3591 287.487C93.827 284.956 89.7204 284.956 87.1883 287.487C84.6561 290.019 84.6561 294.126 87.1883 296.659L103.981 313.452C116.346 325.818 132.588 332.001 148.83 332.001C165.072 332.001 181.313 325.819 193.679 313.454L201.853 305.279C206.605 300.528 209.22 294.213 209.22 287.494C209.22 280.776 206.604 274.46 201.854 269.71Z" fill="white"/>
</g>
<defs>
<clipPath id="clip0_911_922">
<rect width="332" height="332" fill="white"/>
</clipPath>
</defs>
</svg>
