<svg width="354" height="354" viewBox="0 0 354 354" fill="none" xmlns="http://www.w3.org/2000/svg">
<path d="M55.3125 107.859H99.5625C102.617 107.859 105.094 105.385 105.094 102.328V74.6719C105.094 71.6146 102.617 69.1406 99.5625 69.1406H77.4375C74.3829 69.1406 71.9062 71.6146 71.9062 74.6719C71.9062 77.7292 74.3829 80.2031 77.4375 80.2031H94.0312V96.7969H60.8438V52.5469H99.5625C102.617 52.5469 105.094 50.0729 105.094 47.0156C105.094 43.9583 102.617 41.4844 99.5625 41.4844H55.3125C52.2579 41.4844 49.7812 43.9583 49.7812 47.0156V102.328C49.7812 105.385 52.2579 107.859 55.3125 107.859Z" fill="white"/>
<path d="M193.594 102.329V58.0792L206.871 68.0343C208.837 69.5144 211.538 69.5144 213.504 68.0343L226.781 58.0792V102.329C226.781 105.386 229.255 107.86 232.312 107.86C235.37 107.86 237.844 105.386 237.844 102.329V47.0167C237.844 44.9208 236.661 43.0087 234.786 42.0688C232.917 41.1397 230.67 41.3342 228.996 42.5928L210.188 56.6964L191.379 42.5928C189.71 41.3288 187.458 41.1343 185.589 42.0688C183.714 43.0087 182.531 44.9208 182.531 47.0167V102.329C182.531 105.386 185.005 107.86 188.062 107.86C191.12 107.86 193.594 105.386 193.594 102.329Z" fill="white"/>
<path d="M254.438 107.859H298.688C301.745 107.859 304.219 105.385 304.219 102.328C304.219 99.2708 301.745 96.7969 298.688 96.7969H259.969V80.2031H282.094C285.151 80.2031 287.625 77.7292 287.625 74.6719C287.625 71.6146 285.151 69.1406 282.094 69.1406H259.969V52.5469H298.688C301.745 52.5469 304.219 50.0729 304.219 47.0156C304.219 43.9583 301.745 41.4844 298.688 41.4844H254.438C251.38 41.4844 248.906 43.9583 248.906 47.0156V102.328C248.906 105.385 251.38 107.859 254.438 107.859Z" fill="white"/>
<path d="M148.952 44.963C148.109 42.8618 146.076 41.4844 143.815 41.4844C141.555 41.4844 139.521 42.8618 138.678 44.963L116.553 100.276C115.419 103.111 116.799 106.331 119.635 107.465C122.479 108.594 125.69 107.217 126.827 104.381L143.815 61.9079L153.345 85.7344H143.815C140.76 85.7344 138.284 88.2083 138.284 91.2656C138.284 94.3229 140.76 96.7969 143.815 96.7969H157.77L160.803 104.381C161.67 106.547 163.747 107.859 165.943 107.859C166.626 107.859 167.32 107.735 167.995 107.465C170.831 106.331 172.211 103.111 171.077 100.276L148.952 44.963Z" fill="white"/>
<path d="M312.516 262.734H273.797C270.74 262.734 268.266 265.208 268.266 268.266V306.984C268.266 310.042 270.74 312.516 273.797 312.516H312.516C315.573 312.516 318.047 310.042 318.047 306.984V268.266C318.047 265.208 315.573 262.734 312.516 262.734ZM306.984 301.453H279.328V273.797H306.984V301.453Z" fill="white"/>
<path d="M65.7912 265.792C63.9168 262.043 57.7698 262.043 55.8954 265.792L36.5361 304.511C35.6799 306.223 35.7717 308.259 36.7791 309.891C37.7865 311.522 39.5664 312.516 41.4839 312.516H80.2027C82.1203 312.516 83.9001 311.522 84.9075 309.891C85.9149 308.259 86.0067 306.223 85.1506 304.511L65.7912 265.792ZM50.4344 301.453L60.8433 280.636L71.2522 301.453H50.4344Z" fill="white"/>
<path d="M138.281 262.734C124.556 262.734 113.391 273.9 113.391 287.625C113.391 301.35 124.556 312.516 138.281 312.516C152.007 312.516 163.172 301.35 163.172 287.625C163.172 273.9 152.007 262.734 138.281 262.734ZM138.281 301.453C130.657 301.453 124.453 295.252 124.453 287.625C124.453 279.998 130.657 273.797 138.281 273.797C145.906 273.797 152.109 279.998 152.109 287.625C152.109 295.252 145.906 301.453 138.281 301.453Z" fill="white"/>
<path d="M238.989 264.355C236.828 262.194 233.328 262.194 231.167 264.355L215.719 279.803L200.27 264.355C198.109 262.194 194.609 262.194 192.449 264.355C190.288 266.516 190.288 270.016 192.449 272.176L207.897 287.625L192.449 303.074C190.288 305.234 190.288 308.734 192.449 310.895C193.529 311.975 194.944 312.516 196.359 312.516C197.775 312.516 199.19 311.975 200.27 310.895L215.719 295.447L231.167 310.895C232.248 311.975 233.663 312.516 235.078 312.516C236.493 312.516 237.909 311.975 238.989 310.895C241.15 308.734 241.15 305.234 238.989 303.074L223.54 287.625L238.989 272.176C241.15 270.016 241.15 266.516 238.989 264.355Z" fill="white"/>
<path d="M143.812 235.078V201.891H154.875C157.93 201.891 160.406 199.417 160.406 196.359V135.516C160.406 132.458 157.93 129.984 154.875 129.984C151.82 129.984 149.344 132.458 149.344 135.516V190.828H138.281C135.227 190.828 132.75 193.302 132.75 196.359V235.078C132.75 238.135 135.227 240.609 138.281 240.609C141.336 240.609 143.812 238.135 143.812 235.078Z" fill="white"/>
<path d="M55.3125 174.234V235.078C55.3125 238.135 57.7891 240.609 60.8438 240.609C63.8984 240.609 66.375 238.135 66.375 235.078V179.766H121.688C124.742 179.766 127.219 177.292 127.219 174.234V135.516C127.219 132.458 124.742 129.984 121.688 129.984C118.633 129.984 116.156 132.458 116.156 135.516V168.703H60.8438C57.7891 168.703 55.3125 171.177 55.3125 174.234Z" fill="white"/>
<path d="M215.719 240.609C218.776 240.609 221.25 238.135 221.25 235.078V196.359C221.25 193.302 218.776 190.828 215.719 190.828H204.656V135.516C204.656 132.458 202.182 129.984 199.125 129.984C196.068 129.984 193.594 132.458 193.594 135.516V196.359C193.594 199.417 196.068 201.891 199.125 201.891H210.188V235.078C210.188 238.135 212.661 240.609 215.719 240.609Z" fill="white"/>
<path d="M293.156 240.609C296.214 240.609 298.688 238.135 298.688 235.078V174.234C298.688 171.177 296.214 168.703 293.156 168.703H237.844V135.516C237.844 132.458 235.37 129.984 232.312 129.984C229.255 129.984 226.781 132.458 226.781 135.516V174.234C226.781 177.292 229.255 179.766 232.312 179.766H287.625V235.078C287.625 238.135 290.099 240.609 293.156 240.609Z" fill="white"/>
</svg>
