<svg width="324" height="324" viewBox="0 0 324 324" fill="none" xmlns="http://www.w3.org/2000/svg">
<path d="M320.804 159.875L269.179 36.3125L219.367 57.125C219.992 51.25 219.992 42.9375 216.804 36.9375C209.679 23.625 193.054 18.5625 179.742 25.6875C166.429 32.8125 161.367 49.4375 168.492 62.75C170.992 67.4375 174.742 71.25 179.367 73.8125L126.117 96C124.929 92.25 123.117 88.6875 120.804 85.5C121.492 85.125 122.054 84.6875 122.617 84.125C123.929 82.8125 124.742 81.0625 124.742 79.1875L124.492 58.5625H128.742C129.742 58.5625 130.679 58.125 131.367 57.4375C132.117 56.75 132.492 55.75 132.492 54.75L131.742 0L124.242 0.125L124.929 51.0625L24.7419 51.8125L24.0544 0L16.5544 0.125L17.2419 55.6875C17.3044 57.75 18.9294 59.3125 20.9919 59.375H25.3669C25.3669 59.5625 25.6169 80 25.6169 80C25.6794 82.25 26.8044 84.3125 28.6169 85.625L25.8669 90C24.8044 91.6875 23.3669 95.875 23.3669 95.875H23.3044L12.3669 136.687L15.2419 145.562L11.1794 147.375C7.42937 149.063 4.42937 152.125 2.99188 156C1.55438 159.875 1.67937 164.125 3.36688 167.875L58.9294 292L110.992 268.687C112.867 267.875 114.179 266.125 114.367 264.062C114.554 262 113.617 260 111.929 258.875C105.242 254.188 100.617 249.125 99.2419 245C95.7419 234.625 101.304 223.313 111.742 219.813C122.117 216.313 133.429 221.875 136.929 232.313C138.617 237.25 138.242 242.687 135.929 247.375C134.929 249.375 135.304 251.75 136.867 253.312C138.367 254.937 140.742 255.438 142.742 254.5L185.992 235.125C188.054 234.25 189.804 232.75 191.054 230.875L197.617 228.188C198.367 234.375 200.679 240.25 204.367 245.312C203.679 245.688 203.117 246.187 202.554 246.75C201.179 248.062 200.429 249.875 200.429 251.75L200.742 272.313H196.492C195.492 272.313 194.554 272.75 193.867 273.438C193.117 274.125 192.742 275.125 192.804 276.125L193.492 323.312H200.992L200.304 279.875L300.492 279.062L301.179 323.375H308.679L307.992 275.312C307.929 273.25 306.304 271.625 304.242 271.562H299.867C299.867 271.437 299.929 271.25 299.929 271.125L299.617 251C299.617 248.75 298.492 246.625 296.617 245.375C298.054 243.063 299.179 241.313 299.367 240.938C300.429 239.313 301.242 237.5 301.742 235.562L301.867 235.125H301.929L312.867 194.25L308.867 181.625L312.492 180.125C320.367 176.875 324.117 167.938 320.867 160.063C320.867 160 320.804 159.938 320.804 159.875ZM58.9919 126L58.3669 127.063C54.1169 134.563 46.4294 137.875 46.3669 137.875L43.6169 139C43.6169 139 47.9294 165.063 49.1169 172.625C49.8044 177.125 48.9919 181.75 46.7419 185.688C45.1169 188 42.4919 189.375 39.6794 189.375C37.7419 189.312 36.9294 188.312 36.6169 187.75L24.4294 149.688L22.1169 142.5L20.1794 136.5L30.7419 97.1875C31.0544 96.0625 31.5544 95 32.1794 94C32.1794 94 34.1169 90.875 36.3044 87.5L112.304 86.875C115.554 90.3125 117.929 94.5 119.242 99.0625L58.9919 126ZM115.867 79.4375H115.742V79.3125L34.6794 79.9375C34.1169 80 33.6169 79.8125 33.1794 79.5V78.75L32.9294 59.875C33.3669 59.625 33.8669 59.4375 34.3669 59.4375L115.554 58.8125C116.117 58.75 116.617 58.9375 117.054 59.25L117.367 79C116.929 79.25 116.367 79.4375 115.867 79.4375ZM182.929 228.25L144.617 245.438C148.304 230.75 139.429 215.875 124.742 212.188C110.054 208.5 95.1794 217.375 91.4919 232.062C90.1794 237.125 90.4294 242.5 92.0544 247.437C94.1794 253.625 99.8669 259.125 105.054 263.125L62.6169 282.125L10.1169 164.813C9.24187 162.875 9.17937 160.687 9.99187 158.687C10.7419 156.687 12.2419 155.125 14.1794 154.25L17.4919 152.75L29.7419 190.938C31.6169 194.5 35.2419 196.812 39.3044 196.875C39.3044 196.875 49.0544 197.062 53.0544 189.625V189.5C56.1794 184 57.3669 177.625 56.3669 171.375C55.4294 165.375 52.8669 149.687 51.8044 143.375C56.8044 140.625 61.0544 136.625 64.1794 131.875L127.617 103.438C127.617 103.438 129.367 102.437 130.742 102.75C131.554 103.062 132.304 104 132.679 104.812L152.304 149.688C153.117 151.75 155.179 153 157.367 152.875C159.554 152.75 161.429 151.25 162.117 149.187C163.804 143.5 167.929 138.937 173.429 136.687C183.179 132.312 194.679 136.625 199.054 146.375C203.117 155.375 199.804 165.938 191.304 171C185.867 174.063 176.367 173.313 172.554 172.875C170.554 172.625 168.554 173.5 167.304 175.125C167.304 175.188 165.492 177.25 166.679 180.812L185.242 222.188C185.929 223.75 185.679 225.625 184.617 226.938C184.242 227.5 183.617 228 182.929 228.25ZM292.117 252.062L292.429 270.938C291.992 271.25 291.492 271.438 290.929 271.375L209.742 272C209.179 272.063 208.679 271.875 208.242 271.562L207.929 252.125L292.117 252.062ZM294.492 233.625C294.179 234.75 293.679 235.812 293.054 236.812V236.938C293.054 236.938 291.179 240 288.992 243.375L288.242 244.562H213.554L212.929 243.937C208.117 238.812 205.242 232.125 204.867 225.063L258.992 202.5C257.804 204.625 256.679 206.875 255.617 209.125L262.429 212.313C263.804 209.375 265.304 206.5 266.867 203.75C268.429 201 270.554 198.625 272.992 196.625C274.804 195.125 276.742 193.938 278.867 192.938L281.617 191.812L281.179 188.875C281.117 188.813 280.929 187.438 280.554 185.375C279.429 178.625 277.054 164 276.117 158.25C275.429 153.75 276.242 149.125 278.492 145.188C280.117 142.875 282.742 141.438 285.554 141.438C287.492 141.5 288.304 142.5 288.617 143.125L299.617 177.375L301.929 184.562L305.054 194.375L294.492 233.625ZM313.929 168.875C313.117 170.813 311.554 172.375 309.617 173.188L306.554 174.5L295.429 139.875C293.554 136.313 289.929 134.063 285.929 133.938C276.304 134.188 272.117 141.25 272.117 141.25C268.992 146.75 267.804 153.125 268.804 159.375C269.742 165.437 272.304 181.062 273.367 187.375C271.929 188.187 270.554 189.125 269.242 190.125L192.992 222C192.804 221 175.429 181.875 175.429 181.875C181.617 182.312 188.742 182 194.054 179.188L196.429 177.75C199.304 175.812 201.804 173.375 203.742 170.5L204.554 169.25C205.992 166.875 207.054 164.313 207.742 161.625C207.804 161.5 207.804 161.375 207.804 161.25H207.867C208.554 158.812 208.867 156.312 208.867 153.75C208.867 151 208.429 148.187 207.617 145.562C203.117 131.125 187.742 123.125 173.304 127.625C166.367 129.812 160.554 134.687 157.179 141.187L152.742 131.25C151.304 127.688 141.742 106.687 139.617 101.812C139.117 100.875 138.554 99.9375 137.867 99.125L187.304 78.75C189.367 77.875 190.617 75.8125 190.492 73.625C190.429 71.4375 188.929 69.5625 186.867 68.9375C176.367 65.75 170.429 54.6875 173.617 44.125C173.929 43.125 174.304 42.1875 174.742 41.25C177.179 36.125 181.679 32.25 187.179 30.75C196.179 28.1875 205.742 32.1875 210.179 40.4375C213.117 45.9375 212.117 55.375 211.554 59.1875C211.304 61.25 212.117 63.25 213.742 64.5C215.367 65.75 217.492 66.0625 219.367 65.25L265.117 46.125L313.867 162.75C314.742 164.687 314.742 166.938 313.929 168.875Z" fill="white"/>
<path d="M85.9184 293.689L79.2539 297.129L87.91 313.901L94.5745 310.462L85.9184 293.689Z" fill="white"/>
<path d="M33.8084 293.993L25.1523 310.766L31.8168 314.205L40.4729 297.433L33.8084 293.993Z" fill="white"/>
<path d="M56.1955 304.736L55.7344 323.605L63.2321 323.789L63.6933 304.919L56.1955 304.736Z" fill="white"/>
<path d="M244.489 10.5878L237.824 14.0273L246.48 30.7997L253.145 27.3602L244.489 10.5878Z" fill="white"/>
<path d="M300.601 10.8371L291.945 27.6094L298.61 31.0489L307.266 14.2766L300.601 10.8371Z" fill="white"/>
<path d="M268.75 0.810342L268.289 19.6797L275.787 19.8629L276.248 0.993584L268.75 0.810342Z" fill="white"/>
</svg>
