<svg width="28" height="28" viewBox="0 0 28 28" fill="none" xmlns="http://www.w3.org/2000/svg">
<path fill-rule="evenodd" clip-rule="evenodd" d="M19.2508 2.625C18.6961 2.62481 18.148 2.74636 17.6454 2.98105C17.1427 3.21575 16.6977 3.55789 16.3417 3.98332C15.9857 4.40876 15.7274 4.90713 15.5849 5.44329C15.4425 5.97944 15.4195 6.54031 15.5175 7.08633L9.99915 10.9503L9.91982 11.0122C9.35997 10.5745 8.68842 10.303 7.98173 10.2286C7.27504 10.1542 6.56166 10.2798 5.92293 10.5913C5.28421 10.9027 4.74585 11.3873 4.36925 11.9899C3.99265 12.5925 3.79297 13.2888 3.79297 13.9994C3.79297 14.71 3.99265 15.4063 4.36925 16.0089C4.74585 16.6115 5.28421 17.0961 5.92293 17.4076C6.56166 17.719 7.27504 17.8447 7.98173 17.7702C8.68842 17.6958 9.35997 17.4243 9.91982 16.9867L9.99915 17.0497L15.5175 20.9137C15.4786 21.1314 15.4591 21.3547 15.4591 21.5833C15.4593 22.4822 15.7788 23.3518 16.3606 24.037C16.9425 24.7222 17.7488 25.1784 18.6358 25.3242C19.5228 25.47 20.4327 25.2959 21.2033 24.833C21.9739 24.3701 22.5549 23.6486 22.8428 22.797C23.1307 21.9455 23.1066 21.0193 22.775 20.1839C22.4434 19.3484 21.8257 18.6579 21.0322 18.2356C20.2387 17.8132 19.321 17.6866 18.4427 17.8782C17.5645 18.0697 16.7829 18.5671 16.2373 19.2815L11.0118 15.6217C11.2451 15.1293 11.3758 14.5798 11.3758 13.9988C11.3758 13.4178 11.2451 12.8672 11.0118 12.376L16.2385 8.71733C16.6299 9.23005 17.1456 9.63444 17.7368 9.89226C18.3281 10.1501 18.9753 10.2528 19.6173 10.1907C20.2594 10.1286 20.8749 9.90381 21.4058 9.53748C21.9367 9.17115 22.3654 8.67544 22.6513 8.09724C22.9372 7.51903 23.0708 6.87746 23.0396 6.2332C23.0084 5.58893 22.8134 4.96328 22.4729 4.41542C22.1325 3.86756 21.6579 3.41561 21.0941 3.10231C20.5303 2.78902 19.8958 2.62473 19.2508 2.625ZM17.2091 6.41667C17.2091 5.87518 17.4243 5.35588 17.8071 4.97299C18.19 4.5901 18.7093 4.375 19.2508 4.375C19.7923 4.375 20.3116 4.5901 20.6945 4.97299C21.0774 5.35588 21.2925 5.87518 21.2925 6.41667C21.2925 6.95815 21.0774 7.47746 20.6945 7.86034C20.3116 8.24323 19.7923 8.45833 19.2508 8.45833C18.7093 8.45833 18.19 8.24323 17.8071 7.86034C17.4243 7.47746 17.2091 6.95815 17.2091 6.41667ZM7.58415 11.9583C7.04267 11.9583 6.52336 12.1734 6.14047 12.5563C5.75759 12.9392 5.54248 13.4585 5.54248 14C5.54248 14.5415 5.75759 15.0608 6.14047 15.4437C6.52336 15.8266 7.04267 16.0417 7.58415 16.0417C8.12563 16.0417 8.64494 15.8266 9.02783 15.4437C9.41071 15.0608 9.62582 14.5415 9.62582 14C9.62582 13.4585 9.41071 12.9392 9.02783 12.5563C8.64494 12.1734 8.12563 11.9583 7.58415 11.9583ZM19.2508 19.5417C18.7093 19.5417 18.19 19.7568 17.8071 20.1397C17.4243 20.5225 17.2091 21.0419 17.2091 21.5833C17.2091 22.1248 17.4243 22.6441 17.8071 23.027C18.19 23.4099 18.7093 23.625 19.2508 23.625C19.7923 23.625 20.3116 23.4099 20.6945 23.027C21.0774 22.6441 21.2925 22.1248 21.2925 21.5833C21.2925 21.0419 21.0774 20.5225 20.6945 20.1397C20.3116 19.7568 19.7923 19.5417 19.2508 19.5417Z" fill="white"/>
</svg>
